HIERARCHY
ROOT Hips
{
 OFFSET 0.000000 0.000000 0.000000
 CHANNELS 6 Xposition Yposition Zposition Yrotation Xrotation Zrotation
 JOINT Chest
 {
  OFFSET 0.000000 14.374500 -0.011500
  CHANNELS 3 Yrotation Xrotation Zrotation
  JOINT Chest2
  {
   OFFSET 0.000000 9.203400 0.023400
   CHANNELS 3 Yrotation Xrotation Zrotation
   JOINT Chest3
   {
    OFFSET 0.000000 9.162700 0.000000
    CHANNELS 3 Yrotation Xrotation Zrotation
    JOINT Chest4
    {
     OFFSET 0.000000 9.153300 0.000000
     CHANNELS 3 Yrotation Xrotation Zrotation
     JOINT Neck
     {
      OFFSET 0.000000 13.353600 0.000000
      CHANNELS 3 Yrotation Xrotation Zrotation
      JOINT Head
      {
       OFFSET 0.000000 8.573800 0.049400
       CHANNELS 3 Yrotation Xrotation Zrotation
       End Site
       {
        OFFSET 0.000000 16.219200 0.026100
       }
      }
     }
     JOINT RightCollar
     {
      OFFSET -2.497100 8.876100 0.000000
      CHANNELS 3 Yrotation Xrotation Zrotation
      JOINT RightShoulder
      {
       OFFSET -12.289200 0.000000 0.000000
       CHANNELS 3 Yrotation Xrotation Zrotation
       JOINT RightElbow
       {
        OFFSET 0.000000 -28.194900 0.000000
        CHANNELS 3 Yrotation Xrotation Zrotation
        JOINT RightWrist
        {
         OFFSET 0.000000 -23.009700 0.007900
         CHANNELS 3 Yrotation Xrotation Zrotation
         End Site
         {
          OFFSET 0.000000 -17.151500 0.000000
         }
        }
       }
      }
     }
     JOINT LeftCollar
     {
      OFFSET 2.497100 8.876100 0.000000
      CHANNELS 3 Yrotation Xrotation Zrotation
      JOINT LeftShoulder
      {
       OFFSET 12.289200 0.000000 0.000000
       CHANNELS 3 Yrotation Xrotation Zrotation
       JOINT LeftElbow
       {
        OFFSET 0.000000 -28.194900 0.000000
        CHANNELS 3 Yrotation Xrotation Zrotation
        JOINT LeftWrist
        {
         OFFSET 0.000000 -23.009700 0.007900
         CHANNELS 3 Yrotation Xrotation Zrotation
         End Site
         {
          OFFSET 0.000000 -17.151500 0.000000
         }
        }
       }
      }
     }
    }
   }
  }
 }
 JOINT RightHip
 {
  OFFSET -11.777600 0.056700 0.005700
  CHANNELS 3 Yrotation Xrotation Zrotation
  JOINT RightKnee
  {
   OFFSET 0.000000 -39.966000 -0.004200
   CHANNELS 3 Yrotation Xrotation Zrotation
   JOINT RightAnkle
   {
    OFFSET 0.000000 -41.981900 0.027400
    CHANNELS 3 Yrotation Xrotation Zrotation
    JOINT RightToe
    {
     OFFSET 0.000000 -9.910600 16.950100
     CHANNELS 3 Yrotation Xrotation Zrotation
     End Site
     {
      OFFSET 0.000000 -1.461000 6.191600
     }
    }
   }
  }
 }
 JOINT LeftHip
 {
  OFFSET 11.777600 0.056700 0.005700
  CHANNELS 3 Yrotation Xrotation Zrotation
  JOINT LeftKnee
  {
   OFFSET 0.000000 -39.966000 -0.004200
   CHANNELS 3 Yrotation Xrotation Zrotation
   JOINT LeftAnkle
   {
    OFFSET 0.000000 -41.981900 0.027400
    CHANNELS 3 Yrotation Xrotation Zrotation
    JOINT LeftToe
    {
     OFFSET 0.000000 -9.910600 16.950100
     CHANNELS 3 Yrotation Xrotation Zrotation
     End Site
     {
      OFFSET 0.000000 -1.461000 6.191600
     }
    }
   }
  }
 }
}
MOTION
Frames: 12
Frame Time: 0.008333
0.000000 91.618700 0.000000 0.000000 -5.767877 0.000000 0.000000 11.653817 0.000000 0.000000 -5.885947 0.000000 0.000000 -0.000000 0.000000 0.000000 -0.000000 0.000000 0.000000 12.528835 0.000000 0.000000 0.711642 0.000000 0.000000 -0.000000 0.000000 0.000000 0.000000 -90.000000 0.000000 -2.309062 0.000000 0.000000 2.309062 0.000000 0.000000 -0.000000 0.000000 0.000000 -0.000000 90.000000 0.000000 -2.309062 0.000000 0.000000 2.309062 0.000000 0.000000 8.520406 0.000000 0.000000 1.905762 0.000000 -0.000000 -4.658285 0.000000 0.000000 -0.000000 0.000000 0.000000 8.520406 0.000000 0.000000 1.905762 0.000000 -0.000000 -4.658285 0.000000 0.000000 -0.000000 0.000000
-2.659345 152.732020 76.102192 174.113540 -46.387311 -3.168074 4.227289 24.053931 2.991935 0.524113 3.715021 0.389103 0.844545 5.911004 0.633219 3.233268 19.950762 2.583167 1.095894 19.618975 0.452797 1.051598 -4.984479 0.232844 -0.514428 -5.227725 1.317805 6.432491 -12.225767 -6.797110 26.109093 -57.276575 -6.502869 26.346156 29.680904 -13.015858 -8.409743 -9.161327 -1.532308 -6.243815 -15.974864 6.061258 -24.248757 -43.661490 2.809141 -18.922618 -2.778139 43.030361 7.108388 -31.470850 3.625896 -73.742673 83.773851 -77.486986 1.227363 -24.206934 9.962560 0.090293 -0.309199 0.045549 -0.953903 -29.195767 -1.443501 154.302487 69.683005 164.778036 -6.872599 4.885667 -7.123074 0.121703 -9.613622 -0.258896
-3.103253 145.668122 77.089818 174.267338 -46.342359 -3.390944 4.162332 23.983942 3.104051 0.519510 3.682762 0.383970 0.850687 5.948872 0.641011 3.232913 19.921531 2.576457 1.102594 19.644692 0.458562 1.071802 -5.034252 0.211662 -0.504023 -5.189645 1.326003 6.412640 -12.265587 -6.802976 26.045900 -57.245484 -6.416184 26.300986 29.664428 -13.025088 -8.412171 -9.132460 -1.540776 -6.179299 -16.019683 6.060495 -24.198042 -43.619822 2.721399 -18.963140 -2.801192 42.994725 6.936394 -31.542561 3.753513 -73.998028 83.776743 -77.745528 1.256305 -24.334368 9.973434 0.043072 -0.195725 0.025173 -1.126381 -29.204475 -1.305503 154.276433 69.729318 164.756389 -6.833694 4.929497 -7.094606 0.060159 0.065318 0.035176
-3.474482 139.854313 77.899295 174.364596 -46.328562 -3.529159 4.120728 23.944252 3.171724 0.519351 3.677685 0.383416 0.850841 5.943269 0.639446 3.233940 19.908290 2.575949 1.110991 19.620444 0.451110 1.075183 -4.996152 0.220568 -0.490944 -5.159744 1.333161 6.384797 -12.343461 -6.811245 25.905927 -57.179660 -6.241072 26.180808 29.619540 -13.066607 -8.417649 -9.130327 -1.555153 -6.150803 -15.997143 6.068974 -24.154946 -43.599673 2.672695 -18.964769 -2.850494 42.931770 6.830007 -31.575083 3.834805 -74.202343 83.776845 -77.950359 1.257308 -24.416907 9.982592 0.027205 -0.123049 0.015902 -1.231449 -29.190438 -1.219053 154.256353 69.768466 164.738286 -6.815502 4.971875 -7.084018 0.038881 0.042152 0.022735
-3.740925 135.655512 78.484869 174.446669 -46.320192 -3.644428 4.085556 23.908802 3.228491 0.519699 3.688683 0.384480 0.847291 5.901030 0.632820 3.238381 19.913849 2.580765 1.118754 19.617395 0.448949 1.077859 -4.967684 0.224886 -0.476071 -5.145541 1.340937 6.364894 -12.340825 -6.810909 25.703621 -57.176012 -6.049297 26.200504 29.609060 -13.080469 -8.415643 -9.090259 -1.560477 -6.128564 -16.010916 6.068386 -24.153482 -43.578402 2.646625 -18.947001 -2.880684 42.898436 6.740250 -31.596598 3.901523 -74.351613 83.777413 -78.100391 1.260859 -24.488357 9.992029 0.009848 -0.060961 0.005757 -1.319227 -29.177673 -1.148258 154.237974 69.801243 164.717264 -6.790161 5.016393 -7.066596 0.012655 0.018661 0.007400
-3.909718 133.003304 78.855761 174.499153 -46.316205 -3.715750 4.061207 23.884612 3.261568 0.519239 3.668146 0.383985 0.849162 5.921014 0.634976 3.236512 19.881671 2.576680 1.127203 19.635352 0.450541 1.074664 -4.941933 0.230221 -0.471305 -5.112860 1.349211 6.358271 -12.331971 -6.811785 25.554407 -57.179262 -5.918976 26.194468 29.584505 -13.099493 -8.413353 -9.048885 -1.567565 -6.084826 -16.051863 6.070467 -24.139027 -43.532445 2.593112 -18.949435 -2.914956 42.868405 6.685574 -31.608471 3.941674 -74.457535 83.779916 -78.205696 1.255453 -24.536133 9.997194 0.002583 -0.020803 0.001510 -1.373982 -29.167847 -1.105783 154.229079 69.822237 164.709009 -6.777596 5.044861 -7.067243 0.001736 0.009438 0.001015
-4.004044 131.545136 79.059882 174.507739 -46.322280 -3.733885 4.059822 23.883545 3.273565 0.517351 3.634682 0.382550 0.848131 5.920047 0.632315 3.242362 19.871121 2.579417 1.139869 19.641460 0.450512 1.085862 -4.936757 0.227469 -0.468383 -5.083001 1.355408 6.341514 -12.351768 -6.807389 25.434347 -57.151301 -5.800403 26.168430 29.553831 -13.128086 -8.409638 -9.023250 -1.573665 -6.043892 -16.079222 6.061595 -24.125519 -43.481960 2.552518 -18.958693 -2.948623 42.837950 6.677009 -31.607405 3.952083 -74.512357 83.778250 -78.257142 1.260484 -24.550420 9.997864 -0.000101 -0.010558 -0.000059 -1.387028 -29.158232 -1.089642 154.247543 69.830710 164.727718 -6.767461 5.055588 -7.072424 -0.000008 0.005525 -0.000004
-4.049201 130.850778 79.158142 174.506208 -46.329864 -3.737178 4.059606 23.864495 3.278834 0.517810 3.630135 0.380239 0.847998 5.911146 0.633005 3.245284 19.862167 2.578648 1.157716 19.635018 0.448630 1.117712 -4.947656 0.215957 -0.464011 -5.058140 1.359897 6.326210 -12.414325 -6.787818 25.312795 -57.072174 -5.679006 26.135800 29.517030 -13.169585 -8.405444 -9.000836 -1.576725 -6.019197 -16.104281 6.054750 -24.101239 -43.430382 2.513152 -18.975569 -2.971374 42.819469 6.679837 -31.602003 3.953478 -74.518003 83.781220 -78.258524 1.261358 -24.558626 9.997074 0.000196 -0.004993 0.000115 -1.387619 -29.148000 -1.082584 154.247418 69.835941 164.732320 -6.773889 5.061143 -7.077478 0.001082 0.002734 0.000633
-4.067468 130.567199 79.199137 174.502832 -46.340620 -3.736729 4.061980 23.847328 3.279476 0.514528 3.629156 0.380604 0.847305 5.865909 0.630155 3.249264 19.889399 2.583213 1.168180 19.659442 0.450720 1.157304 -4.975392 0.200905 -0.457871 -5.031727 1.363314 6.316576 -12.427333 -6.782055 25.197486 -57.042581 -5.580160 26.099148 29.469523 -13.219737 -8.405622 -8.980800 -1.579767 -5.989289 -16.162438 6.060555 -23.991491 -43.335579 2.381520 -19.011723 -3.030391 42.809850 6.680310 -31.596683 3.948097 -74.554401 83.790845 -78.289111 1.265514 -24.561033 9.991993 0.000144 -0.006422 0.000084 -1.382639 -29.135323 -1.077029 154.246409 69.837968 164.732653 -6.780879 5.061058 -7.074681 0.000019 0.001243 0.000011
-4.072760 130.469190 79.214330 174.487427 -46.353613 -3.729681 4.069658 23.836526 3.281819 0.516244 3.638603 0.380751 0.845481 5.845593 0.628742 3.252083 19.900665 2.584604 1.197217 19.627311 0.447195 1.179931 -4.963884 0.197552 -0.454803 -5.016169 1.364661 6.313216 -12.430984 -6.779905 25.078239 -57.031520 -5.487972 26.116444 29.435799 -13.241183 -8.415006 -9.001995 -1.581664 -5.974341 -16.130364 6.060504 -23.937040 -43.315987 2.330555 -18.915381 -3.114740 42.799592 6.688641 -31.586605 3.947984 -74.531686 83.792925 -78.259952 1.267474 -24.557980 9.989416 0.000446 -0.005371 0.000261 -1.366280 -29.118512 -1.071854 154.241139 69.841180 164.732539 -6.783305 5.060931 -7.074674 0.000014 -0.000924 0.000008
-4.074201 130.439673 79.221128 174.485194 -46.358046 -3.729062 4.064591 23.819417 3.279353 0.518967 3.647096 0.381013 0.846376 5.826360 0.628202 3.251229 19.911196 2.584486 1.233436 19.593871 0.444439 1.205463 -4.955888 0.193677 -0.443629 -5.024446 1.367375 6.299321 -12.445545 -6.770365 24.939523 -56.986688 -5.370279 26.138057 29.395924 -13.263568 -8.414748 -8.986560 -1.583285 -5.974622 -16.171524 6.072898 -23.892488 -43.273477 2.274065 -18.830135 -3.166016 42.794180 6.689581 -31.583246 3.946092 -74.523633 83.789481 -78.250736 1.271759 -24.555804 9.993322 0.000937 -0.004018 0.000548 -1.362779 -29.113869 -1.071734 154.238751 69.840939 164.731995 -6.785643 5.060437 -7.074541 -0.000905 -0.001082 -0.000529
-4.073732 130.432281 79.224782 174.484441 -46.363662 -3.730788 4.063892 23.781802 3.282101 0.518465 3.638851 0.380669 0.846300 5.861825 0.628359 3.251089 19.845577 2.581853 1.265560 19.630027 0.446956 1.204012 -4.935819 0.197802 -0.432603 -5.000790 1.375290 6.281091 -12.479724 -6.762580 24.768269 -56.898830 -5.209589 26.015201 29.289989 -13.383243 -8.426104 -8.933104 -1.592727 -5.973500 -16.249461 6.113228 -23.618395 -43.165439 1.996051 -18.856387 -3.241054 42.819836 6.688662 -31.578282 3.945500 -74.525142 83.786524 -78.251334 1.278077 -24.556417 9.997408 0.002141 -0.003625 0.001252 -1.362470 -29.106917 -1.070345 154.225233 69.837191 164.719832 -6.787774 5.055492 -7.076081 -0.001386 0.000588 -0.000810
